<?xml version="1.0" encoding="UTF-8"?>
<svg xmlns="http://www.w3.org/2000/svg" xmlns:xlink="http://www.w3.org/1999/xlink" width="78px" height="39px" viewBox="0 0 78 39" version="1.1">
<g id="surface1">
<path style=" stroke:none;fill-rule:nonzero;fill:rgb(0%,0%,0%);fill-opacity:1;" d="M 37.289062 10.105469 C 35.535156 10.449219 33.851562 11.253906 30.109375 13.558594 C 25.785156 16.207031 24.328125 16.976562 22.449219 17.605469 C 21.359375 17.972656 21.277344 18.019531 21.242188 18.328125 C 21.21875 18.503906 21.265625 18.789062 21.324219 18.960938 L 21.4375 19.257812 L 22.242188 19.042969 C 24.019531 18.546875 25.796875 17.617188 29.914062 15.039062 C 33.230469 12.960938 34.390625 12.308594 35.71875 11.757812 C 38.117188 10.769531 39.882812 10.769531 42.28125 11.757812 C 43.601562 12.308594 44.757812 12.960938 48.0625 15.027344 C 52.269531 17.652344 53.980469 18.546875 55.757812 19.042969 L 56.5625 19.257812 L 56.675781 18.960938 C 56.734375 18.789062 56.78125 18.503906 56.757812 18.328125 C 56.722656 18.019531 56.640625 17.972656 55.550781 17.605469 C 53.683594 16.976562 52.238281 16.21875 47.945312 13.59375 C 43.976562 11.160156 42.671875 10.519531 40.914062 10.164062 C 39.988281 9.96875 38.128906 9.933594 37.289062 10.105469 Z M 37.289062 10.105469 "/>
<path style=" stroke:none;fill-rule:nonzero;fill:rgb(0%,0%,0%);fill-opacity:1;" d="M 14.222656 10.585938 C 13.375 10.78125 12.570312 11.265625 12.136719 11.847656 C 10.128906 14.578125 11.792969 18.226562 15.519531 19.28125 C 16.335938 19.523438 16.710938 19.558594 18.375 19.558594 C 19.511719 19.558594 20.335938 19.511719 20.394531 19.441406 C 20.453125 19.375 20.476562 19.085938 20.429688 18.777344 L 20.359375 18.226562 L 18.523438 18.191406 C 17.125 18.15625 16.484375 18.089844 15.839844 17.917969 C 13.339844 17.21875 12 15.851562 12.007812 14.003906 C 12.019531 13.121094 12.226562 12.558594 12.789062 11.941406 C 13.421875 11.242188 14.167969 10.976562 15.382812 11.035156 C 16.300781 11.070312 16.402344 11.09375 16.679688 11.378906 C 17.011719 11.746094 17.125 11.769531 17.367188 11.515625 C 18.007812 10.875 15.816406 10.230469 14.222656 10.585938 Z M 14.222656 10.585938 "/>
<path style=" stroke:none;fill-rule:nonzero;fill:rgb(0%,0%,0%);fill-opacity:1;" d="M 61.816406 10.554688 C 61.035156 10.691406 60.566406 10.964844 60.566406 11.285156 C 60.566406 11.515625 60.75 11.699219 60.976562 11.699219 C 61.011719 11.699219 61.160156 11.5625 61.320312 11.378906 C 61.597656 11.09375 61.699219 11.070312 62.617188 11.035156 C 63.832031 10.976562 64.578125 11.242188 65.210938 11.941406 C 65.773438 12.558594 65.980469 13.121094 65.992188 14.003906 C 66 15.863281 64.671875 17.21875 62.160156 17.917969 C 61.515625 18.089844 60.875 18.15625 59.476562 18.191406 L 57.640625 18.226562 L 57.570312 18.777344 C 57.523438 19.085938 57.546875 19.375 57.605469 19.441406 C 57.664062 19.511719 58.488281 19.558594 59.625 19.558594 C 61.289062 19.558594 61.664062 19.523438 62.480469 19.28125 C 66.207031 18.226562 67.871094 14.578125 65.863281 11.847656 C 65.085938 10.792969 63.464844 10.277344 61.816406 10.554688 Z M 61.816406 10.554688 "/>
<path style=" stroke:none;fill-rule:nonzero;fill:rgb(0%,0%,0%);fill-opacity:1;" d="M 0.230469 12.789062 L 0.492188 13.078125 L 11.320312 13.078125 L 11.449219 12.789062 L 11.585938 12.503906 L -0.0351562 12.503906 Z M 0.230469 12.789062 "/>
<path style=" stroke:none;fill-rule:nonzero;fill:rgb(0%,0%,0%);fill-opacity:1;" d="M 12.46875 12.582031 C 12.421875 12.617188 12.386719 12.753906 12.386719 12.871094 C 12.386719 13.066406 12.730469 13.078125 21.105469 13.078125 C 25.902344 13.078125 29.824219 13.042969 29.824219 12.984375 C 29.824219 12.9375 29.742188 12.8125 29.664062 12.699219 C 29.523438 12.515625 28.976562 12.503906 21.027344 12.503906 C 16.355469 12.503906 12.503906 12.539062 12.46875 12.582031 Z M 12.46875 12.582031 "/>
<path style=" stroke:none;fill-rule:nonzero;fill:rgb(0%,0%,0%);fill-opacity:1;" d="M 48.371094 12.710938 C 48.257812 12.824219 48.175781 12.960938 48.175781 12.996094 C 48.175781 13.042969 52.097656 13.078125 56.90625 13.078125 L 65.625 13.078125 L 65.589844 12.8125 L 65.554688 12.558594 L 57.054688 12.527344 C 48.933594 12.503906 48.542969 12.515625 48.371094 12.710938 Z M 48.371094 12.710938 "/>
<path style=" stroke:none;fill-rule:nonzero;fill:rgb(0%,0%,0%);fill-opacity:1;" d="M 66.550781 12.789062 L 66.679688 13.078125 L 77.507812 13.078125 L 77.769531 12.789062 L 78.035156 12.503906 L 66.414062 12.503906 Z M 66.550781 12.789062 "/>
<path style=" stroke:none;fill-rule:nonzero;fill:rgb(0%,0%,0%);fill-opacity:1;" d="M 24.261719 14.121094 C 22.734375 14.351562 21.128906 15.589844 20.703125 16.875 C 20.453125 17.628906 20.507812 18.878906 20.855469 19.636719 C 21.519531 21.152344 23.457031 22.136719 25.453125 21.988281 C 27.09375 21.863281 28.652344 21.164062 31.199219 19.441406 L 32.78125 18.375 L 33.597656 18.9375 C 34.042969 19.257812 34.433594 19.558594 34.46875 19.613281 C 34.503906 19.671875 34.355469 19.992188 34.136719 20.324219 C 32.691406 22.597656 33.082031 25.429688 35.089844 27.335938 C 36.5 28.664062 38.230469 29.25 39.804688 28.953125 C 42.144531 28.503906 44.160156 26.589844 44.621094 24.351562 C 44.90625 23.011719 44.585938 21.359375 43.828125 20.257812 C 43.621094 19.957031 43.496094 19.683594 43.53125 19.613281 C 43.566406 19.558594 43.957031 19.257812 44.402344 18.9375 L 45.21875 18.375 L 46.800781 19.441406 C 50.125 21.703125 52.179688 22.355469 54.246094 21.851562 C 56.25 21.359375 57.46875 19.914062 57.46875 18.007812 C 57.46875 17.046875 57.191406 16.367188 56.46875 15.589844 C 55.117188 14.132812 52.902344 13.660156 50.835938 14.382812 C 50.125 14.636719 50.082031 14.683594 50.34375 14.867188 C 50.550781 15.015625 50.675781 15.003906 51.386719 14.785156 C 53.085938 14.269531 54.945312 14.648438 55.90625 15.714844 C 57.144531 17.089844 57.320312 18.859375 56.308594 19.992188 C 55.691406 20.703125 55.046875 20.933594 53.796875 20.921875 C 52.121094 20.886719 50.105469 20.085938 47.558594 18.433594 L 46.308594 17.617188 L 46.605469 17.390625 C 46.777344 17.25 47.375 16.863281 47.9375 16.519531 C 48.507812 16.171875 48.980469 15.851562 48.980469 15.804688 C 48.980469 15.761719 48.851562 15.691406 48.691406 15.644531 C 48.476562 15.589844 48.152344 15.75 47.167969 16.390625 C 46.480469 16.839844 45.882812 17.207031 45.847656 17.207031 C 45.800781 17.207031 45.378906 16.941406 44.882812 16.621094 C 43.773438 15.898438 42.453125 15.265625 41.179688 14.84375 C 39.792969 14.382812 38.207031 14.382812 36.820312 14.84375 C 35.546875 15.265625 34.226562 15.898438 33.117188 16.621094 C 32.621094 16.941406 32.199219 17.207031 32.152344 17.207031 C 32.117188 17.207031 31.519531 16.839844 30.832031 16.390625 C 29.847656 15.75 29.523438 15.589844 29.308594 15.644531 C 29.148438 15.691406 29.019531 15.761719 29.019531 15.804688 C 29.019531 15.851562 29.492188 16.171875 30.0625 16.519531 C 30.625 16.863281 31.222656 17.25 31.394531 17.390625 L 31.691406 17.617188 L 30.441406 18.433594 C 27.839844 20.132812 25.867188 20.898438 24.144531 20.910156 C 23 20.921875 22.425781 20.738281 21.875 20.210938 C 20.703125 19.109375 20.796875 17.148438 22.082031 15.738281 C 23.054688 14.648438 24.890625 14.269531 26.613281 14.785156 C 27.335938 15.003906 27.449219 15.015625 27.65625 14.867188 C 27.886719 14.707031 27.886719 14.695312 27.679688 14.589844 C 26.921875 14.1875 25.316406 13.960938 24.261719 14.121094 Z M 40.46875 15.785156 C 41.453125 16.105469 42.886719 16.816406 43.964844 17.515625 L 44.757812 18.019531 L 44.484375 18.214844 C 44.34375 18.328125 43.957031 18.605469 43.632812 18.847656 L 43.0625 19.257812 L 42.488281 18.789062 C 42.175781 18.535156 41.59375 18.15625 41.179688 17.964844 C 40.46875 17.617188 40.363281 17.605469 39 17.605469 C 37.636719 17.605469 37.53125 17.617188 36.820312 17.964844 C 36.40625 18.15625 35.824219 18.535156 35.511719 18.789062 L 34.9375 19.257812 L 34.367188 18.847656 C 34.042969 18.605469 33.65625 18.328125 33.515625 18.214844 L 33.242188 18.019531 L 34.066406 17.480469 C 35.867188 16.324219 38.472656 15.3125 39.285156 15.449219 C 39.480469 15.496094 40.007812 15.644531 40.46875 15.785156 Z M 40.730469 18.339844 C 41.042969 18.46875 41.59375 18.789062 41.949219 19.050781 C 42.703125 19.625 42.726562 19.589844 41.179688 20.347656 C 40.226562 20.808594 40.179688 20.820312 39 20.820312 C 37.820312 20.820312 37.773438 20.808594 36.820312 20.347656 C 35.273438 19.589844 35.296875 19.625 36.050781 19.050781 C 37.027344 18.320312 37.589844 18.136719 38.964844 18.125 C 39.859375 18.125 40.285156 18.179688 40.730469 18.339844 Z M 35.972656 20.53125 C 37.164062 21.230469 37.75 21.394531 39 21.394531 C 40.25 21.394531 40.835938 21.230469 42.027344 20.53125 C 42.453125 20.28125 42.855469 20.074219 42.921875 20.074219 C 42.980469 20.074219 43.152344 20.359375 43.3125 20.703125 C 43.667969 21.472656 43.804688 23.113281 43.601562 24.066406 C 43.222656 25.855469 41.949219 27.230469 40.089844 27.875 C 39.253906 28.160156 38.746094 28.160156 37.933594 27.886719 C 36.441406 27.367188 35.410156 26.460938 34.765625 25.121094 C 34.367188 24.273438 34.355469 24.238281 34.355469 22.828125 C 34.355469 21.507812 34.378906 21.335938 34.664062 20.726562 C 34.835938 20.371094 35.019531 20.074219 35.078125 20.074219 C 35.144531 20.074219 35.546875 20.28125 35.972656 20.53125 Z M 35.972656 20.53125 "/>
</g>
</svg>
