<svg xmlns="http://www.w3.org/2000/svg" xmlns:xlink="http://www.w3.org/1999/xlink" xml:space="preserve" version="1.1" style="shape-rendering:geometricPrecision;text-rendering:geometricPrecision;image-rendering:optimizeQuality;" viewBox="0 0 847 1058.75" x="0px" y="0px" fill-rule="evenodd" clip-rule="evenodd"><defs><style type="text/css">
   
    .fil0 {fill:black}
   
  </style></defs><g><path class="fil0" d="M389 813c0,0 -50,-233 1,-268 7,-4 12,-4 14,-9 12,-25 -7,-267 -10,-307 -4,-41 -31,-162 7,-188 17,-12 27,-12 44,0 37,26 10,144 7,188 -3,40 -20,287 -11,306 10,22 41,5 38,83 0,20 -14,192 -22,195 -2,1 -4,0 -6,-1 -5,-8 10,-193 1,-195 -2,0 -4,-1 -6,0 -8,3 -3,192 -10,197 -2,1 -4,0 -5,-2 -7,-9 3,-195 -6,-195l-4 0c-10,0 1,186 -6,196 -2,2 -4,2 -5,1 -7,-5 -3,-194 -10,-197 -2,0 -5,0 -6,0 -9,2 6,188 0,195 -1,1 -3,2 -5,1z"/></g><text x="0" y="862" fill="#000000" font-size="5px" font-weight="bold" font-family="'Helvetica Neue', Helvetica, Arial-Unicode, Arial, Sans-serif">Created by TUTUK ISTUNINGRUM</text><text x="0" y="867" fill="#000000" font-size="5px" font-weight="bold" font-family="'Helvetica Neue', Helvetica, Arial-Unicode, Arial, Sans-serif">from the Noun Project</text></svg>